# xmcd
#
# Track frame offsets:
#	150
#	16527
#	35525
#	54265
#	67472
#	86490
#	100167
#	118325
#	132110
#	150137
#	165050
#	179647
#
# Disc length: 2560 seconds
#
# Revision: 1
# Processed by: cddbd v1.4b42PL1 Copyright (c) Steve Scherf et al.
# Submitted via: audiograbber 1.80
#
DISCID=8d09fe0c
DTITLE=Jeff and Sheri Easter - By Request A Collection Of Favorites 
DYEAR=1900
DGENRE=
TTITLE0=There's A Higher Power
TTITLE1=I Wonder If He Ever Cries
TTITLE2=Roses Will Bloom Again
TTITLE3=You'll Reap What You Sow
TTITLE4=She's Loved Him For So Many Years
TTITLE5=No Limit
TTITLE6=There Is A Way
TTITLE7=Dying To Live
TTITLE8=Moma's Bible
TTITLE9=Heart That Will Never Break Again
TTITLE10=I've Been Touched
TTITLE11=Keep Walkin' On
EXTD=
EXTT0=
EXTT1=
EXTT2=
EXTT3=
EXTT4=
EXTT5=
EXTT6=
EXTT7=
EXTT8=
EXTT9=
EXTT10=
EXTT11=
PLAYORDER=
